# xmcd
#
# Track frame offsets:
#	150
#	9442
#	35785
#	60141
#	95740
#	120754
#	162753
#	202803
#	253895
#	260773
#	291868
#	322150
#
# Disc length: 4637 seconds
#
# Revision: 1
# Processed by: cddbd v1.5.2PL0 Copyright (c) Steve Scherf et al.
# Submitted via: audiograbber 1.83.01
#
DISCID=a4121b0c
DTITLE=Grateful Dead - 93-03-24 Dean Smith Centre, Chapel Hill NC
DYEAR=1900
DGENRE=
TTITLE0=Tuning
TTITLE1=Jack Straw
TTITLE2=Stagger Lee
TTITLE3=Wang Dang Doodle
TTITLE4=It Must Have Been The Roses
TTITLE5=Stuck Inside Of Mobile
TTITLE6=Tennessee Jed
TTITLE7=Let It Grow
TTITLE8=Tuning
TTITLE9=Here Comes Sunshine
TTITLE10=Playing In The Band
TTITLE11=Box Of Rain
EXTD=
EXTT0=
EXTT1=
EXTT2=
EXTT3=
EXTT4=
EXTT5=
EXTT6=
EXTT7=
EXTT8=
EXTT9=
EXTT10=
EXTT11=
PLAYORDER=
